<?xml version="1.0" encoding="UTF-8" standalone="no"?>
<!-- Created with Inkscape (http://www.inkscape.org/) -->

<svg
   width="11mm"
   height="16.67mm"
   viewBox="0 0 11 16.67"
   version="1.1"
   id="svg5"
   xml:space="preserve"
   inkscape:version="1.2.2 (732a01da63, 2022-12-09)"
   sodipodi:docname="pattern_white_small.svg"
   xmlns:inkscape="http://www.inkscape.org/namespaces/inkscape"
   xmlns:sodipodi="http://sodipodi.sourceforge.net/DTD/sodipodi-0.dtd"
   xmlns="http://www.w3.org/2000/svg"
   xmlns:svg="http://www.w3.org/2000/svg"><sodipodi:namedview
     id="namedview7"
     pagecolor="#ffffff"
     bordercolor="#000000"
     borderopacity="0.25"
     inkscape:showpageshadow="2"
     inkscape:pageopacity="0.0"
     inkscape:pagecheckerboard="0"
     inkscape:deskcolor="#d1d1d1"
     inkscape:document-units="mm"
     showgrid="false"
     inkscape:zoom="8"
     inkscape:cx="2.625"
     inkscape:cy="10.5"
     inkscape:window-width="3440"
     inkscape:window-height="1369"
     inkscape:window-x="-8"
     inkscape:window-y="-8"
     inkscape:window-maximized="1"
     inkscape:current-layer="layer1" /><defs
     id="defs2"><inkscape:perspective
       sodipodi:type="inkscape:persp3d"
       inkscape:vp_x="0 : 259.67001 : 1"
       inkscape:vp_y="0 : 1000 : 0"
       inkscape:vp_z="1919.9999 : 259.67001 : 1"
       inkscape:persp3d-origin="960.00006 : 79.669983 : 1"
       id="perspective641" /></defs><g
     inkscape:label="Lag 1"
     inkscape:groupmode="layer"
     id="layer1"><path
       style="fill:#000000;fill-opacity:1;stroke-width:0.0790022"
       d="m 47.991956,114.31303 c 0,18.9605 0,18.9605 0,18.9605"
       id="path38468" /><path
       id="path12979-9-6-0"
       style="stroke-width:0.0386502;stroke:#ffffff;stroke-opacity:1;fill:#ffffff;fill-opacity:1"
       d="m -0.00910764,1.4534247 c -0.3917014,0 -0.52003182,0.4599129 -0.35254236,0.7145225 0.14808809,0.2251175 0.2961328,0.3793799 0.31269885,0.6104549 -0.08774754,-0.00832 -0.06743098,-0.0544 -0.38104519,-0.3104501 C -0.66476853,2.2762723 -1.1185991,2.38984 -1.1185991,2.819343 c 0,0.4295031 0.45383057,0.5431462 0.68860276,0.3514669 0.3172932,-0.2590529 0.29296168,-0.3031322 0.38437184,-0.3106786 0.0046199,0.1422278 0.0074784,0.6457844 -0.15476191,1.1305645 0.11295579,-0.047633 0.26960174,-0.047633 0.38255755,0 C 0.01993134,3.5059157 0.02279231,3.0023591 0.02740924,2.8601313 0.11881938,2.8676713 0.09448751,2.9117572 0.411781,3.1708099 0.64655283,3.3624892 1.1003838,3.2488455 1.1003838,2.819343 1.1003838,2.3898393 0.64655283,2.2762723 0.411781,2.467952 0.09816677,2.7240013 0.11848342,2.7700791 0.03073587,2.7784021 0.04730122,2.5473271 0.19534665,2.3930647 0.34343465,2.1679472 0.51092425,1.9133376 0.38259363,1.4534247 -0.00910764,1.4534247 Z" /><path
       id="rect20955-5-1-2"
       style="stroke-width:0.0423658;stroke:#ffffff;stroke-opacity:1;fill:#ffffff;fill-opacity:1"
       d="m 5.5103075,7.0721214 c 0,0 -0.083677,0.3903306 -0.6980537,0.879584 -0.6020244,0.4794118 -0.317887,1.4226293 0.6387777,1.0197139 -0.022533,0.1928532 -0.065286,0.417433 -0.1450814,0.6379823 0.12212,-0.047636 0.2915074,-0.047636 0.4136302,0 C 5.6400826,9.3896859 5.5973261,9.16593 5.5747318,8.9735587 6.5273101,9.3710015 6.8093169,8.4302696 6.2083656,7.9517054 5.5939842,7.462452 5.5103075,7.0721214 5.5103075,7.0721214 Z" /><g
       id="g28515-6-9"
       style="fill:#ffffff;stroke:#ffffff;stroke-opacity:1;fill-opacity:1"
       transform="matrix(0.03870934,0,0,0.03903495,-17.954354,-11.375336)"><path
         id="path26172-0-5"
         style="fill:#ffffff;stroke-width:1.03293;stroke:#ffffff;stroke-opacity:1;fill-opacity:1"
         d="m 521.45898,405 c -7.47885,0 -13.54296,7.93606 -13.54296,17.72656 0,14.18181 18.95899,26.00074 27.08398,47.27344 8.12499,-21.2727 27.08398,-33.09163 27.08398,-47.27344 C 562.08398,412.93606 556.01987,405 548.54102,405 542.81933,405 537.22159,410.39399 535,417.31055 532.77841,410.39399 527.18067,405 521.45898,405 Z" /></g><path
       id="rect28591-4"
       style="fill:#ffffff;stroke-width:0.0308938;stroke:#ffffff;stroke-opacity:1;fill-opacity:1"
       d="M 7.3250461,11.169604 C 7.7388306,10.712897 7.9269151,10.45917 8.2654666,9.9009699 8.6040182,10.45917 8.7921031,10.712897 9.2058875,11.169604 8.7921031,11.626316 8.6040182,11.880044 8.2654666,12.438242 7.9269151,11.880044 7.7388306,11.626316 7.3250461,11.169604 Z"
       sodipodi:nodetypes="ccccc" /><rect
       style="fill:none;fill-opacity:1;stroke:#ffffff;stroke-width:0.23251;stroke-dasharray:none;stroke-opacity:1"
       id="rect42578-8-5"
       width="3.9128044"
       height="3.9128044"
       x="-9.0590293e-06"
       y="7.9117772e-06"
       transform="matrix(0.70413923,0.71006193,-0.70413916,0.710062,0,0)" /><rect
       style="fill:none;fill-opacity:1;stroke:#ffffff;stroke-width:0.23251;stroke-dasharray:none;stroke-opacity:1"
       id="rect42578-4-63-03"
       width="3.9128044"
       height="3.9128044"
       x="3.9127972"
       y="7.9117772e-06"
       transform="matrix(0.70413923,0.71006193,-0.70413916,0.710062,0,0)" /><rect
       style="fill:none;fill-opacity:1;stroke:#ffffff;stroke-width:0.23251;stroke-dasharray:none;stroke-opacity:1"
       id="rect42578-8-4-7"
       width="3.9128044"
       height="3.9128044"
       x="7.8255997"
       y="7.1786326e-06"
       transform="matrix(0.70413923,0.71006193,-0.70413916,0.710062,0,0)" /><rect
       style="fill:none;fill-opacity:1;stroke:#ffffff;stroke-width:0.23251;stroke-dasharray:none;stroke-opacity:1"
       id="rect42578-4-63-0-6"
       width="3.9128044"
       height="3.9128044"
       x="11.738405"
       y="7.1786326e-06"
       transform="matrix(0.70413923,0.71006193,-0.70413916,0.710062,0,0)" /><path
       id="rect20955-5-1-2-1"
       style="stroke-width:0.0423658;stroke:#ffffff;stroke-opacity:1;fill:#ffffff;fill-opacity:1"
       d="m 5.5103086,1.5154554 c 0,0 -0.083678,0.3903304 -0.6980538,0.8795841 -0.6020245,0.4794121 -0.317887,1.4226296 0.6387777,1.0197139 -0.022533,0.1928532 -0.065286,0.4174332 -0.1450814,0.6379822 0.12212,-0.047635 0.2915073,-0.047635 0.41363,0 C 5.6400836,3.8330203 5.5973272,3.6092639 5.5747328,3.4168927 6.527311,3.8143359 6.8093179,2.8736039 6.2083666,2.3950395 5.5939852,1.9057858 5.5103086,1.5154554 5.5103086,1.5154554 Z" /><g
       id="g28515-6-9-6"
       style="fill:#ffffff;stroke:#ffffff;stroke-opacity:1;fill-opacity:1"
       transform="matrix(0.03870934,0,0,0.03903495,-17.954352,-16.932)"><path
         id="path26172-0-5-3"
         style="fill:#ffffff;stroke-width:1.03293;stroke:#ffffff;stroke-opacity:1;fill-opacity:1"
         d="m 521.45898,405 c -7.47885,0 -13.54296,7.93606 -13.54296,17.72656 0,14.18181 18.95899,26.00074 27.08398,47.27344 8.12499,-21.2727 27.08398,-33.09163 27.08398,-47.27344 C 562.08398,412.93606 556.01987,405 548.54102,405 542.81933,405 537.22159,410.39399 535,417.31055 532.77841,410.39399 527.18067,405 521.45898,405 Z" /></g><path
       id="rect28591-4-9"
       style="fill:#ffffff;stroke-width:0.0308938;stroke:#ffffff;stroke-opacity:1;fill-opacity:1"
       d="M 7.3250472,5.6129399 C 7.7388316,5.1562313 7.9269161,4.902504 8.2654677,4.3443044 8.6040192,4.902504 8.7921042,5.1562313 9.2058885,5.6129399 8.7921042,6.0696485 8.6040192,6.323376 8.2654677,6.8815759 7.9269161,6.323376 7.7388316,6.0696485 7.3250472,5.6129399 Z"
       sodipodi:nodetypes="ccccc" /><rect
       style="fill:none;fill-opacity:1;stroke:#ffffff;stroke-width:0.23251;stroke-dasharray:none;stroke-opacity:1"
       id="rect42578-4-63-03-5"
       width="3.9128044"
       height="3.9128044"
       x="-6.2139948e-06"
       y="-3.9127965"
       transform="matrix(0.70413923,0.71006193,-0.70413916,0.710062,0,0)" /><rect
       style="fill:none;fill-opacity:1;stroke:#ffffff;stroke-width:0.23251;stroke-dasharray:none;stroke-opacity:1"
       id="rect42578-8-4-7-4"
       width="3.9128044"
       height="3.9128044"
       x="3.9127972"
       y="-3.9127975"
       transform="matrix(0.70413923,0.71006193,-0.70413916,0.710062,0,0)" /><rect
       style="fill:none;fill-opacity:1;stroke:#ffffff;stroke-width:0.23251;stroke-dasharray:none;stroke-opacity:1"
       id="rect42578-4-63-0-6-7"
       width="3.9128044"
       height="3.9128044"
       x="7.8256025"
       y="-3.9127975"
       transform="matrix(0.70413923,0.71006193,-0.70413916,0.710062,0,0)" /><path
       id="path12979-9-6-0-3"
       style="stroke-width:0.0386502;stroke:#ffffff;stroke-opacity:1;fill:#ffffff;fill-opacity:1"
       d="m -0.00910665,7.0100927 c -0.39170139,0 -0.5200318,0.4599129 -0.35254234,0.7145227 0.14808807,0.2251174 0.29613279,0.3793798 0.31269884,0.6104545 C -0.1366977,8.3267499 -0.11638123,8.280669 -0.42999534,8.0246201 -0.66476753,7.8329404 -1.1185982,7.9465082 -1.1185982,8.376011 c 0,0.4295034 0.45383067,0.5431468 0.68860286,0.3514665 0.31729321,-0.259052 0.29296167,-0.3031321 0.38437184,-0.310678 0.0046199,0.1422279 0.0074784,0.6457842 -0.15476193,1.1305645 0.11295582,-0.047633 0.26960176,-0.047633 0.38255758,0 C 0.01993234,9.0625837 0.0227933,8.5590274 0.02741024,8.4167995 0.11882038,8.4243386 0.09448922,8.4684245 0.411782,8.7274775 0.64655383,8.9191578 1.1003848,8.8055143 1.1003848,8.376011 1.1003848,7.9465079 0.64655383,7.8329404 0.411782,8.0246201 0.09816777,8.2806693 0.11848441,8.326747 0.03073688,8.3350699 0.04730223,8.1039952 0.19534765,7.9497328 0.34343565,7.7246154 0.51092526,7.4700056 0.38259464,7.0100927 -0.00910665,7.0100927 Z" /><path
       id="rect20955-5-1-2-9"
       style="stroke-width:0.0423658;stroke:#ffffff;stroke-opacity:1;fill:#ffffff;fill-opacity:1"
       d="m 5.5103086,12.628789 c 0,0 -0.083678,0.39033 -0.6980538,0.879584 -0.6020245,0.479412 -0.317887,1.42263 0.6387777,1.019716 -0.022533,0.192852 -0.065286,0.417431 -0.1450814,0.637982 0.12212,-0.04764 0.2915073,-0.04764 0.41363,0 -0.079498,-0.219717 -0.1222539,-0.443473 -0.1448483,-0.635844 0.9525782,0.397442 1.2345851,-0.54329 0.6336338,-1.021854 -0.6143814,-0.489254 -0.698058,-0.879584 -0.698058,-0.879584 z" /><g
       id="g28515-6-9-64"
       style="fill:#ffffff;stroke:#ffffff;stroke-opacity:1;fill-opacity:1"
       transform="matrix(0.03870934,0,0,0.03903495,-17.954352,-5.8186663)"><path
         id="path26172-0-5-0"
         style="fill:#ffffff;stroke-width:1.03293;stroke:#ffffff;stroke-opacity:1;fill-opacity:1"
         d="m 521.45898,405 c -7.47885,0 -13.54296,7.93606 -13.54296,17.72656 0,14.18181 18.95899,26.00074 27.08398,47.27344 8.12499,-21.2727 27.08398,-33.09163 27.08398,-47.27344 C 562.08398,412.93606 556.01987,405 548.54102,405 542.81933,405 537.22159,410.39399 535,417.31055 532.77841,410.39399 527.18067,405 521.45898,405 Z" /></g><path
       id="rect28591-4-5"
       style="fill:#ffffff;stroke-width:0.0308938;stroke:#ffffff;stroke-opacity:1;fill-opacity:1"
       d="m 7.3250472,16.726275 c 0.4137844,-0.456709 0.6018689,-0.710437 0.9404205,-1.268636 0.3385515,0.558199 0.5266365,0.811927 0.9404208,1.268636 C 8.7921042,17.182983 8.6040192,17.436711 8.2654677,17.994909 7.9269161,17.436711 7.7388316,17.182983 7.3250472,16.726275 Z"
       sodipodi:nodetypes="ccccc" /><rect
       style="fill:none;fill-opacity:1;stroke:#ffffff;stroke-width:0.23251;stroke-dasharray:none;stroke-opacity:1"
       id="rect42578-8-5-8"
       width="3.9128044"
       height="3.9128044"
       x="3.9127972"
       y="3.9128134"
       transform="matrix(0.70413923,0.71006193,-0.70413916,0.710062,0,0)" /><rect
       style="fill:none;fill-opacity:1;stroke:#ffffff;stroke-width:0.23251;stroke-dasharray:none;stroke-opacity:1"
       id="rect42578-4-63-03-0"
       width="3.9128044"
       height="3.9128044"
       x="7.8256025"
       y="3.9128134"
       transform="matrix(0.70413923,0.71006193,-0.70413916,0.710062,0,0)" /><rect
       style="fill:none;fill-opacity:1;stroke:#ffffff;stroke-width:0.23251;stroke-dasharray:none;stroke-opacity:1"
       id="rect42578-8-4-7-8"
       width="3.9128044"
       height="3.9128044"
       x="11.738405"
       y="3.9128125"
       transform="matrix(0.70413923,0.71006193,-0.70413916,0.710062,0,0)" /><rect
       style="fill:none;fill-opacity:1;stroke:#ffffff;stroke-width:0.23251;stroke-dasharray:none;stroke-opacity:1"
       id="rect42578-4-63-0-6-2"
       width="3.9128044"
       height="3.9128044"
       x="15.636563"
       y="3.9274576"
       transform="matrix(0.70413923,0.71006193,-0.70413916,0.710062,0,0)" /><path
       id="path12979-9-6-0-5"
       style="stroke-width:0.0386502;stroke:#ffffff;stroke-opacity:1;fill:#ffffff;fill-opacity:1"
       d="m 11.01153,7.0100911 c -0.391702,0 -0.520033,0.4599129 -0.352542,0.7145229 0.148088,0.2251171 0.296133,0.3793795 0.312698,0.6104542 -0.08775,-0.00832 -0.06742,-0.054401 -0.381047,-0.3104499 -0.234771,-0.1916796 -0.6886012,-0.078113 -0.6886012,0.351391 0,0.4295034 0.4538302,0.5431467 0.6886012,0.3514666 0.317295,-0.2590522 0.292962,-0.3031321 0.384374,-0.3106781 0.0046,0.1422279 0.0075,0.6457842 -0.154763,1.1305645 0.112956,-0.047633 0.269603,-0.047633 0.382558,0 C 11.04057,9.062582 11.043429,8.5590257 11.048044,8.4167978 c 0.09141,0.00754 0.06708,0.051625 0.384374,0.3106781 0.234771,0.1916801 0.688603,0.078036 0.688603,-0.3514666 0,-0.429503 -0.453832,-0.5430706 -0.688603,-0.351391 -0.313615,0.2560493 -0.293297,0.3021273 -0.381045,0.3104499 0.01656,-0.2310747 0.164612,-0.3853371 0.312698,-0.6104542 0.16749,-0.25461 0.03917,-0.7145229 -0.352541,-0.7145229 z" /><rect
       style="fill:none;fill-opacity:1;stroke:#ffffff;stroke-width:0.23251;stroke-dasharray:none;stroke-opacity:1"
       id="rect42578-8-5-4"
       width="3.9128044"
       height="3.9128044"
       x="11.738405"
       y="-3.9127975"
       transform="matrix(0.70413923,0.71006193,-0.70413916,0.710062,0,0)" /><path
       id="path12979-9-6-0-1-4"
       style="stroke-width:0.0386502;stroke:#ffffff;stroke-opacity:1;fill:#ffffff;fill-opacity:1"
       d="m 11.012458,1.451541 c -0.391702,0 -0.520034,0.4599129 -0.352544,0.7145227 0.14809,0.2251173 0.296132,0.3793797 0.3127,0.6104546 -0.08774,-0.00832 -0.06742,-0.0544 -0.381047,-0.3104499 -0.234773,-0.1916798 -0.688602,-0.078112 -0.688602,0.351391 0,0.4295029 0.453829,0.5431461 0.688602,0.3514668 0.317293,-0.259053 0.292962,-0.3031323 0.384373,-0.3106785 0.0046,0.1422276 0.0075,0.6457839 -0.154762,1.1305649 0.112955,-0.047634 0.269603,-0.047634 0.382558,0 -0.162239,-0.484781 -0.159378,-0.9883373 -0.154764,-1.1305649 0.09141,0.00754 0.06707,0.051626 0.384374,0.3106785 0.234772,0.1916793 0.688602,0.078036 0.688602,-0.3514668 0,-0.4295036 -0.45383,-0.5430708 -0.688602,-0.351391 -0.313614,0.2560493 -0.293298,0.3021269 -0.381047,0.3104499 0.01656,-0.2310749 0.164612,-0.3853373 0.3127,-0.6104546 0.167489,-0.2546098 0.03917,-0.7145227 -0.352541,-0.7145227 z" /><rect
       style="fill:none;fill-opacity:1;stroke:#ffffff;stroke-width:0.23251;stroke-dasharray:none;stroke-opacity:1"
       id="rect42578-8-5-2-7"
       width="3.9128044"
       height="3.9128044"
       x="7.8249331"
       y="-7.8275871"
       transform="matrix(0.70413923,0.71006193,-0.70413916,0.710062,0,0)" /><path
       id="path12979-9-6-0-3-1"
       style="stroke-width:0.0386502;stroke:#ffffff;stroke-opacity:1;fill:#ffffff;fill-opacity:1"
       d="m 10.990905,12.566759 c -0.391702,0 -0.520031,0.459912 -0.352542,0.714522 0.148088,0.225116 0.296134,0.379381 0.312699,0.610456 -0.08774,-0.0084 -0.06742,-0.05441 -0.381046,-0.310453 -0.234771,-0.191677 -0.6886028,-0.07811 -0.6886028,0.351391 0,0.429507 0.4538318,0.543148 0.6886028,0.35147 0.317292,-0.259055 0.292961,-0.303134 0.38437,-0.310679 0.0046,0.142227 0.0075,0.645783 -0.154759,1.130564 0.112955,-0.04763 0.269601,-0.04763 0.382557,0 -0.16224,-0.484781 -0.159378,-0.988337 -0.154762,-1.130564 0.09141,0.0076 0.06708,0.05161 0.384372,0.310679 0.234772,0.191678 0.688602,0.07804 0.688602,-0.35147 0,-0.429502 -0.45383,-0.543068 -0.688602,-0.351391 -0.313616,0.256052 -0.293296,0.302129 -0.381045,0.310453 0.01656,-0.231075 0.164611,-0.38534 0.312697,-0.610456 0.167491,-0.25461 0.03917,-0.714522 -0.352541,-0.714522 z" /><rect
       style="fill:none;fill-opacity:1;stroke:#ffffff;stroke-width:0.23251;stroke-dasharray:none;stroke-opacity:1"
       id="rect42578-8-5-8-8"
       width="3.9128044"
       height="3.9128044"
       x="15.636563"
       y="0.01465277"
       transform="matrix(0.70413923,0.71006193,-0.70413916,0.710062,0,0)" /><path
       id="rect28591-4-5-9-9"
       style="fill:#ffffff;stroke-width:0.0308938;stroke:#ffffff;stroke-opacity:1;fill-opacity:1"
       d="M 7.3250461,0.05627232 C 7.7388306,-0.40043611 7.9269151,-0.65416367 8.2654666,-1.2123635 8.6040182,-0.65416367 8.7921031,-0.40043611 9.2058875,0.05627232 8.7921031,0.51298087 8.6040182,0.76670843 8.2654666,1.3249082 7.9269151,0.76670843 7.7388306,0.51298087 7.3250461,0.05627232 Z"
       sodipodi:nodetypes="ccccc" /><rect
       style="fill:none;fill-opacity:1;stroke:#ffffff;stroke-width:0.23251;stroke-dasharray:none;stroke-opacity:1"
       id="rect42578-4-63-0-6-2-1-0"
       width="3.9128044"
       height="3.9128044"
       x="3.9127972"
       y="-7.8256011"
       transform="matrix(0.70413923,0.71006193,-0.70413916,0.710062,0,0)" /><path
       id="path12979-9-6-0-3-1-0-4"
       style="stroke-width:0.0386502;stroke:#ffffff;stroke-opacity:1;fill:#ffffff;fill-opacity:1"
       d="m -0.009106,12.566761 c -0.39170139,0 -0.5200318,0.459913 -0.35254229,0.714522 0.14808809,0.225117 0.29613273,0.379381 0.31269878,0.610456 -0.08774755,-0.0084 -0.06743099,-0.0544 -0.3810452,-0.310452 -0.2347721,-0.191677 -0.68860269,-0.07811 -0.68860269,0.351391 0,0.429506 0.45383059,0.543147 0.68860269,0.351469 0.31729323,-0.259054 0.29296169,-0.303133 0.38437192,-0.310678 0.0046199,0.142227 0.0074784,0.645783 -0.1547619,1.130564 0.1129558,-0.04763 0.26960167,-0.04763 0.38255749,0 -0.16223981,-0.484781 -0.15937878,-0.988337 -0.15476192,-1.130564 0.09141022,0.0076 0.06707827,0.05161 0.38437183,0.310678 0.23477176,0.191678 0.68860279,0.07804 0.68860279,-0.351469 0,-0.429503 -0.45383103,-0.543068 -0.68860279,-0.351391 C 0.09816848,13.837338 0.11848506,13.883416 0.03073759,13.891739 0.04730294,13.660664 0.1953483,13.5064 0.34343629,13.281283 0.5109259,13.026674 0.38259532,12.566761 -0.009106,12.566761 Z" /><g
       id="g28515-6-9-64-5-2-6"
       style="fill:#ffffff;stroke:#ffffff;stroke-opacity:1;fill-opacity:1"
       transform="matrix(0.03870934,0,0,0.03903495,-17.954351,-0.2619986)"><path
         id="path26172-0-5-0-8-8-1"
         style="fill:#ffffff;stroke-width:1.03293;stroke:#ffffff;stroke-opacity:1;fill-opacity:1"
         d="m 521.45898,405 c -7.47885,0 -13.54296,7.93606 -13.54296,17.72656 0,14.18181 18.95899,26.00074 27.08398,47.27344 8.12499,-21.2727 27.08398,-33.09163 27.08398,-47.27344 C 562.08398,412.93606 556.01987,405 548.54102,405 542.81933,405 537.22159,410.39399 535,417.31055 532.77841,410.39399 527.18067,405 521.45898,405 Z" /></g><rect
       style="fill:none;fill-opacity:1;stroke:#ffffff;stroke-width:0.23251;stroke-dasharray:none;stroke-opacity:1"
       id="rect42578-8-5-8-8-6-4"
       width="3.9128044"
       height="3.9128044"
       x="7.8109565"
       y="7.8402624"
       transform="matrix(0.70413923,0.71006193,-0.70413916,0.710062,0,0)" /><rect
       style="fill:none;fill-opacity:1;stroke:#ffffff;stroke-width:0.23251;stroke-dasharray:none;stroke-opacity:1"
       id="rect42578-4-63-03-0-0-0-4"
       width="3.9128044"
       height="3.9128044"
       x="11.723757"
       y="7.8402624"
       transform="matrix(0.70413923,0.71006193,-0.70413916,0.710062,0,0)" /></g></svg>
