<?xml version="1.0" encoding="UTF-8" standalone="no"?>
<!-- Created with Inkscape (http://www.inkscape.org/) -->

<svg
   width="33.026501mm"
   height="50mm"
   viewBox="0 0 33.026501 50"
   version="1.1"
   id="svg5"
   xml:space="preserve"
   inkscape:version="1.2.2 (732a01da63, 2022-12-09)"
   sodipodi:docname="pattern_white.svg"
   xmlns:inkscape="http://www.inkscape.org/namespaces/inkscape"
   xmlns:sodipodi="http://sodipodi.sourceforge.net/DTD/sodipodi-0.dtd"
   xmlns="http://www.w3.org/2000/svg"
   xmlns:svg="http://www.w3.org/2000/svg"><sodipodi:namedview
     id="namedview7"
     pagecolor="#ffffff"
     bordercolor="#000000"
     borderopacity="0.25"
     inkscape:showpageshadow="2"
     inkscape:pageopacity="0.0"
     inkscape:pagecheckerboard="0"
     inkscape:deskcolor="#d1d1d1"
     inkscape:document-units="mm"
     showgrid="false"
     inkscape:zoom="8"
     inkscape:cx="126.375"
     inkscape:cy="183.875"
     inkscape:window-width="3440"
     inkscape:window-height="1369"
     inkscape:window-x="-8"
     inkscape:window-y="-8"
     inkscape:window-maximized="1"
     inkscape:current-layer="layer1" /><defs
     id="defs2"><inkscape:perspective
       sodipodi:type="inkscape:persp3d"
       inkscape:vp_x="0 : 293 : 1"
       inkscape:vp_y="0 : 999.99996 : 0"
       inkscape:vp_z="1919.9999 : 293 : 1"
       inkscape:persp3d-origin="960.00005 : 112.99998 : 1"
       id="perspective641" /></defs><g
     inkscape:label="Lag 1"
     inkscape:groupmode="layer"
     id="layer1"><path
       style="fill:#000000;fill-opacity:1;stroke-width:0.0790022"
       d="m 47.991956,114.31303 c 0,18.9605 0,18.9605 0,18.9605"
       id="path38468" /><path
       id="path12979-9-6-0"
       style="stroke-width:0.115746"
       d="M -2.9202246e-4,4.3494969 C -1.1741481,4.3494969 -1.5587305,5.7258262 -1.0567956,6.4877679 -0.6130033,7.1614507 -0.16934102,7.6230949 -0.11969566,8.3146064 -0.38265858,8.2896994 -0.32177353,8.1518076 -1.261617,7.3855578 -1.9651854,6.8119401 -3.3252314,7.1517995 -3.3252314,8.4371259 c 0,1.2853252 1.360046,1.6254121 2.0636144,1.0517947 0.95086857,-0.7752377 0.87795149,-0.9071491 1.15189078,-0.929732 0.01383582,0.4256289 0.02240978,1.9325654 -0.46379257,3.3833124 0.3385075,-0.142547 0.80794602,-0.142547 1.14645354,0 C 0.08673238,10.491754 0.09530627,8.9848175 0.10914216,8.5591886 0.38308145,8.5817715 0.31016437,8.7136829 1.2610328,9.4889206 1.9646001,10.062538 3.3246474,9.7224511 3.3246474,8.4371259 3.3246474,7.1517995 1.9646001,6.8119401 1.2610328,7.3855578 0.32118947,8.1518076 0.38207453,8.2896989 0.1191116,8.3146064 0.16875466,7.6230949 0.61241926,7.1614507 1.0562114,6.4877679 1.5581465,5.7258262 1.1735641,4.3494969 -2.9202246e-4,4.3494969 Z" /><path
       id="rect20955-5-1-2"
       style="stroke-width:0.126873"
       d="m 16.540366,21.163934 c 0,0 -0.250765,1.168098 -2.091937,2.632231 -1.804155,1.434682 -0.952648,4.257342 1.914298,3.051583 -0.06753,0.57713 -0.195647,1.249204 -0.434782,1.909217 0.365971,-0.142554 0.873593,-0.142554 1.239572,0 -0.23824,-0.657518 -0.366373,-1.327127 -0.434084,-1.902815 2.8547,1.189382 3.699822,-1.625839 1.898883,-3.057985 -1.841187,-1.464133 -2.09195,-2.632231 -2.09195,-2.632231 z" /><g
       id="g28515-6-9"
       style="fill:#000000"
       transform="matrix(0.11600471,0,0,0.11681546,-53.778847,-34.041679)"><path
         id="path26172-0-5"
         style="fill:#000000;stroke-width:1.03293"
         d="m 521.45898,405 c -7.47885,0 -13.54296,7.93606 -13.54296,17.72656 0,14.18181 18.95899,26.00074 27.08398,47.27344 8.12499,-21.2727 27.08398,-33.09163 27.08398,-47.27344 C 562.08398,412.93606 556.01987,405 548.54102,405 542.81933,405 537.22159,410.39399 535,417.31055 532.77841,410.39399 527.18067,405 521.45898,405 Z" /></g><path
       id="rect28591-4"
       style="fill:#000000;stroke-width:0.0925181"
       d="m 21.978799,33.426011 c 1.240035,-1.366739 1.803689,-2.12604 2.818265,-3.796502 1.014576,1.670462 1.578231,2.429763 2.818266,3.796502 -1.240035,1.366741 -1.80369,2.126043 -2.818266,3.796503 -1.014576,-1.67046 -1.57823,-2.429762 -2.818265,-3.796503 z"
       sodipodi:nodetypes="ccccc" /><rect
       style="fill:none;fill-opacity:1;stroke:#000000;stroke-width:0.696292;stroke-dasharray:none;stroke-opacity:1"
       id="rect42578-8-5"
       width="11.717609"
       height="11.717609"
       x="0.019130807"
       y="-0.019138165"
       transform="matrix(0.70464013,0.70956485,-0.70464006,0.70956492,0,0)" /><rect
       style="fill:none;fill-opacity:1;stroke:#000000;stroke-width:0.696292;stroke-dasharray:none;stroke-opacity:1"
       id="rect42578-4-63-03"
       width="11.717609"
       height="11.717609"
       x="11.736745"
       y="-0.019138165"
       transform="matrix(0.70464013,0.70956485,-0.70464006,0.70956492,0,0)" /><rect
       style="fill:none;fill-opacity:1;stroke:#000000;stroke-width:0.696292;stroke-dasharray:none;stroke-opacity:1"
       id="rect42578-8-4-7"
       width="11.717609"
       height="11.717609"
       x="23.45435"
       y="-0.019140335"
       transform="matrix(0.70464013,0.70956485,-0.70464006,0.70956492,0,0)" /><rect
       style="fill:none;fill-opacity:1;stroke:#000000;stroke-width:0.696292;stroke-dasharray:none;stroke-opacity:1"
       id="rect42578-4-63-0-6"
       width="11.717609"
       height="11.717609"
       x="35.171963"
       y="-0.019140335"
       transform="matrix(0.70464013,0.70956485,-0.70464006,0.70956492,0,0)" /><path
       id="rect20955-5-1-2-1"
       style="stroke-width:0.126873"
       d="m 16.540369,4.5351295 c 0,0 -0.250765,1.1680976 -2.091937,2.6322312 -1.804155,1.4346826 -0.952648,4.2573423 1.914298,3.0515823 -0.06753,0.57713 -0.195647,1.249205 -0.434782,1.909217 0.365971,-0.142553 0.873593,-0.142553 1.239572,0 -0.23824,-0.657517 -0.366373,-1.327127 -0.434084,-1.902815 2.8547,1.189383 3.699822,-1.6258385 1.898883,-3.0579843 -1.841187,-1.4641336 -2.09195,-2.6322312 -2.09195,-2.6322312 z" /><g
       id="g28515-6-9-6"
       style="fill:#000000"
       transform="matrix(0.11600471,0,0,0.11681546,-53.778844,-50.670482)"><path
         id="path26172-0-5-3"
         style="fill:#000000;stroke-width:1.03293"
         d="m 521.45898,405 c -7.47885,0 -13.54296,7.93606 -13.54296,17.72656 0,14.18181 18.95899,26.00074 27.08398,47.27344 8.12499,-21.2727 27.08398,-33.09163 27.08398,-47.27344 C 562.08398,412.93606 556.01987,405 548.54102,405 542.81933,405 537.22159,410.39399 535,417.31055 532.77841,410.39399 527.18067,405 521.45898,405 Z" /></g><path
       id="rect28591-4-9"
       style="fill:#000000;stroke-width:0.0925181"
       d="m 21.978802,16.797207 c 1.240035,-1.36674 1.803689,-2.126041 2.818265,-3.796502 1.014576,1.670461 1.578231,2.429762 2.818266,3.796502 -1.240035,1.36674 -1.80369,2.126042 -2.818266,3.796503 -1.014576,-1.670461 -1.57823,-2.429763 -2.818265,-3.796503 z"
       sodipodi:nodetypes="ccccc" /><rect
       style="fill:none;fill-opacity:1;stroke:#000000;stroke-width:0.696292;stroke-dasharray:none;stroke-opacity:1"
       id="rect42578-4-63-03-5"
       width="11.717609"
       height="11.717609"
       x="0.019139398"
       y="-11.736748"
       transform="matrix(0.70464013,0.70956485,-0.70464006,0.70956492,0,0)" /><rect
       style="fill:none;fill-opacity:1;stroke:#000000;stroke-width:0.696292;stroke-dasharray:none;stroke-opacity:1"
       id="rect42578-8-4-7-4"
       width="11.717609"
       height="11.717609"
       x="11.736745"
       y="-11.73675"
       transform="matrix(0.70464013,0.70956485,-0.70464006,0.70956492,0,0)" /><rect
       style="fill:none;fill-opacity:1;stroke:#000000;stroke-width:0.696292;stroke-dasharray:none;stroke-opacity:1"
       id="rect42578-4-63-0-6-7"
       width="11.717609"
       height="11.717609"
       x="23.454357"
       y="-11.73675"
       transform="matrix(0.70464013,0.70956485,-0.70464006,0.70956492,0,0)" /><path
       id="path12979-9-6-0-3"
       style="stroke-width:0.115746"
       d="m -2.8902309e-4,20.978308 c -1.17385607691,0 -1.55843847691,1.376329 -1.05650357691,2.138271 0.4437923,0.673683 0.88745457,1.135327 0.93709994,1.826838 -0.26296293,-0.02491 -0.20207787,-0.162799 -1.14192134,-0.929048 -0.7035684,-0.573618 -2.0636144,-0.233758 -2.0636144,1.051568 0,1.285326 1.360046,1.625413 2.0636144,1.051794 0.95086857,-0.775236 0.87795149,-0.907149 1.15189078,-0.929731 0.01383582,0.425629 0.02240977,1.932565 -0.46379257,3.383312 0.33850749,-0.142546 0.80794602,-0.142546 1.14645353,0 C 0.08673538,27.120565 0.09530927,25.613629 0.10914516,25.188 c 0.27393929,0.02258 0.20102221,0.154495 1.15189064,0.929731 0.7035673,0.573619 2.0636146,0.233532 2.0636146,-1.051794 0,-1.285326 -1.3600473,-1.625186 -2.0636146,-1.051568 -0.93984334,0.766249 -0.87895827,0.904141 -1.1419212,0.929048 0.049643,-0.691511 0.49330766,-1.153155 0.9370998,-1.826838 0.5019351,-0.761942 0.1173527,-2.138271 -1.05650342309,-2.138271 z" /><path
       id="rect20955-5-1-2-9"
       style="stroke-width:0.126873"
       d="m 16.540369,37.792746 c 0,0 -0.250765,1.168098 -2.091937,2.632232 -1.804155,1.434682 -0.952648,4.257341 1.914298,3.051582 -0.06753,0.577129 -0.195647,1.249204 -0.434782,1.909218 0.365971,-0.142554 0.873593,-0.142554 1.239572,0 -0.23824,-0.657518 -0.366373,-1.327128 -0.434084,-1.902816 2.8547,1.189382 3.699822,-1.625838 1.898883,-3.057984 -1.841187,-1.464134 -2.09195,-2.632232 -2.09195,-2.632232 z" /><g
       id="g28515-6-9-64"
       style="fill:#000000"
       transform="matrix(0.11600471,0,0,0.11681546,-53.778844,-17.412867)"><path
         id="path26172-0-5-0"
         style="fill:#000000;stroke-width:1.03293"
         d="m 521.45898,405 c -7.47885,0 -13.54296,7.93606 -13.54296,17.72656 0,14.18181 18.95899,26.00074 27.08398,47.27344 8.12499,-21.2727 27.08398,-33.09163 27.08398,-47.27344 C 562.08398,412.93606 556.01987,405 548.54102,405 542.81933,405 537.22159,410.39399 535,417.31055 532.77841,410.39399 527.18067,405 521.45898,405 Z" /></g><path
       id="rect28591-4-5"
       style="fill:#000000;stroke-width:0.0925181"
       d="m 21.978802,50.054825 c 1.240035,-1.36674 1.803689,-2.126041 2.818265,-3.796503 1.014576,1.670462 1.578231,2.429763 2.818266,3.796503 -1.240035,1.36674 -1.80369,2.126041 -2.818266,3.796502 -1.014576,-1.670461 -1.57823,-2.429762 -2.818265,-3.796502 z"
       sodipodi:nodetypes="ccccc" /><rect
       style="fill:none;fill-opacity:1;stroke:#000000;stroke-width:0.696292;stroke-dasharray:none;stroke-opacity:1"
       id="rect42578-8-5-8"
       width="11.717609"
       height="11.717609"
       x="11.736746"
       y="11.698474"
       transform="matrix(0.70464013,0.70956485,-0.70464006,0.70956492,0,0)" /><rect
       style="fill:none;fill-opacity:1;stroke:#000000;stroke-width:0.696292;stroke-dasharray:none;stroke-opacity:1"
       id="rect42578-4-63-03-0"
       width="11.717609"
       height="11.717609"
       x="23.454357"
       y="11.698474"
       transform="matrix(0.70464013,0.70956485,-0.70464006,0.70956492,0,0)" /><rect
       style="fill:none;fill-opacity:1;stroke:#000000;stroke-width:0.696292;stroke-dasharray:none;stroke-opacity:1"
       id="rect42578-8-4-7-8"
       width="11.717609"
       height="11.717609"
       x="35.171963"
       y="11.698471"
       transform="matrix(0.70464013,0.70956485,-0.70464006,0.70956492,0,0)" /><rect
       style="fill:none;fill-opacity:1;stroke:#000000;stroke-width:0.696292;stroke-dasharray:none;stroke-opacity:1"
       id="rect42578-4-63-0-6-2"
       width="11.717609"
       height="11.717609"
       x="46.845711"
       y="11.742329"
       transform="matrix(0.70464013,0.70956485,-0.70464006,0.70956492,0,0)" /><path
       id="path12979-9-6-0-5"
       style="stroke-width:0.115746"
       d="m 33.026501,20.978303 c -1.173855,0 -1.558438,1.376329 -1.056502,2.138272 0.443791,0.673682 0.887455,1.135326 0.937098,1.826837 -0.262961,-0.02491 -0.202077,-0.162799 -1.14192,-0.929048 -0.703569,-0.573618 -2.063614,-0.233758 -2.063614,1.051568 0,1.285326 1.360045,1.625413 2.063614,1.051794 0.950868,-0.775236 0.877951,-0.907149 1.151891,-0.929731 0.01384,0.425629 0.02241,1.932565 -0.463793,3.383312 0.338507,-0.142546 0.807946,-0.142546 1.146454,0 -0.486203,-1.450747 -0.477629,-2.957683 -0.463794,-3.383312 0.27394,0.02258 0.201023,0.154495 1.151891,0.929731 0.703567,0.573619 2.063616,0.233532 2.063616,-1.051794 0,-1.285326 -1.360049,-1.625186 -2.063616,-1.051568 -0.939843,0.766249 -0.878957,0.904142 -1.14192,0.929048 0.04964,-0.691511 0.493307,-1.153155 0.937099,-1.826837 0.501935,-0.761943 0.117352,-2.138272 -1.056504,-2.138272 z" /><rect
       style="fill:none;fill-opacity:1;stroke:#000000;stroke-width:0.696292;stroke-dasharray:none;stroke-opacity:1"
       id="rect42578-8-5-4"
       width="11.717609"
       height="11.717609"
       x="35.171963"
       y="-11.73675"
       transform="matrix(0.70464013,0.70956485,-0.70464006,0.70956492,0,0)" /><path
       id="path12979-9-6-0-1-4"
       style="stroke-width:0.115746"
       d="m 33.029282,4.3438598 c -1.173857,0 -1.558439,1.3763293 -1.056505,2.138271 0.443793,0.6736829 0.887454,1.1353271 0.937101,1.8268384 -0.262964,-0.024907 -0.202079,-0.1627987 -1.141923,-0.9290484 -0.703567,-0.5736178 -2.063613,-0.2337583 -2.063613,1.051568 0,1.2853251 1.360046,1.6254122 2.063613,1.0517948 0.950868,-0.7752378 0.877953,-0.9071491 1.151891,-0.929732 0.01384,0.4256288 0.02242,1.9325644 -0.463791,3.3833134 0.338507,-0.142548 0.807944,-0.142548 1.146452,0 -0.4862,-1.450749 -0.477628,-2.9576846 -0.463792,-3.3833134 0.27394,0.022584 0.201023,0.1544942 1.151892,0.929732 0.703566,0.5736174 2.063614,0.2335303 2.063614,-1.0517948 0,-1.2853263 -1.360048,-1.6251858 -2.063614,-1.051568 -0.939845,0.7662497 -0.878959,0.904141 -1.141923,0.9290484 0.04964,-0.6915113 0.493308,-1.1531555 0.9371,-1.8268384 0.501936,-0.7619417 0.117353,-2.138271 -1.056502,-2.138271 z" /><rect
       style="fill:none;fill-opacity:1;stroke:#000000;stroke-width:0.696292;stroke-dasharray:none;stroke-opacity:1"
       id="rect42578-8-5-2-7"
       width="11.717609"
       height="11.717609"
       x="23.452353"
       y="-23.460304"
       transform="matrix(0.70464013,0.70956485,-0.70464006,0.70956492,0,0)" /><path
       id="path12979-9-6-0-3-1"
       style="stroke-width:0.115746"
       d="m 32.964693,37.607112 c -1.173855,0 -1.558437,1.37633 -1.056502,2.138272 0.443793,0.673683 0.887455,1.135327 0.937098,1.826839 -0.262961,-0.02491 -0.202077,-0.1628 -1.14192,-0.929049 -0.703568,-0.573618 -2.063614,-0.233758 -2.063614,1.051567 0,1.285326 1.360046,1.625414 2.063614,1.051796 0.950868,-0.775238 0.877952,-0.90715 1.151891,-0.929731 0.01384,0.425627 0.02242,1.932563 -0.463793,3.383312 0.338508,-0.142547 0.807946,-0.142547 1.146454,0 -0.486202,-1.450749 -0.477627,-2.957685 -0.463794,-3.383312 0.273941,0.02258 0.201023,0.154493 1.151892,0.929731 0.703567,0.573618 2.063614,0.23353 2.063614,-1.051796 0,-1.285325 -1.360047,-1.625185 -2.063614,-1.051567 -0.939844,0.766249 -0.878957,0.904141 -1.141922,0.929049 0.04964,-0.691512 0.493309,-1.153156 0.9371,-1.826839 0.501937,-0.761942 0.117352,-2.138272 -1.056504,-2.138272 z" /><rect
       style="fill:none;fill-opacity:1;stroke:#000000;stroke-width:0.696292;stroke-dasharray:none;stroke-opacity:1"
       id="rect42578-8-5-8-8"
       width="11.717609"
       height="11.717609"
       x="46.845711"
       y="0.024718508"
       transform="matrix(0.70464013,0.70956485,-0.70464006,0.70956492,0,0)" /><path
       id="rect28591-4-5-9-9"
       style="fill:#000000;stroke-width:0.0925181"
       d="M 21.978799,0.16839741 C 23.218834,-1.1983424 23.782488,-1.957644 24.797064,-3.6281051 25.81164,-1.957644 26.375295,-1.1983424 27.61533,0.16839741 26.375295,1.5351372 25.81164,2.2944389 24.797064,3.9649 23.782488,2.2944389 23.218834,1.5351372 21.978799,0.16839741 Z"
       sodipodi:nodetypes="ccccc" /><rect
       style="fill:none;fill-opacity:1;stroke:#000000;stroke-width:0.696292;stroke-dasharray:none;stroke-opacity:1"
       id="rect42578-4-63-0-6-2-1-0"
       width="11.717609"
       height="11.717609"
       x="11.736745"
       y="-23.454359"
       transform="matrix(0.70464013,0.70956485,-0.70464006,0.70956492,0,0)" /><path
       id="path12979-9-6-0-3-1-0-4"
       style="stroke-width:0.115746"
       d="m -2.870335e-4,37.607119 c -1.1738560665,0 -1.5584384665,1.37633 -1.0565035665,2.138272 0.44379229,0.673683 0.88745457,1.135327 0.93709994,1.826839 -0.26296293,-0.02491 -0.20207787,-0.1628 -1.14192134,-0.929049 -0.7035684,-0.573618 -2.0636144,-0.233758 -2.0636144,1.051567 0,1.285326 1.360046,1.625414 2.0636144,1.051796 0.95086857,-0.775238 0.87795148,-0.90715 1.15189078,-0.929731 0.01383582,0.425627 0.02240977,1.932563 -0.46379258,3.383312 0.3385075,-0.142547 0.80794603,-0.142547 1.14645353,0 -0.48620235,-1.450749 -0.47762846,-2.957685 -0.46379258,-3.383312 0.2739393,0.02258 0.20102222,0.154493 1.15189065,0.929731 0.7035673,0.573618 2.0636146,0.23353 2.0636146,-1.051796 0,-1.285325 -1.3600473,-1.625185 -2.0636146,-1.051567 -0.93984334,0.766249 -0.87895827,0.904141 -1.1419212,0.929049 0.049643,-0.691512 0.49330765,-1.153156 0.9370998,-1.826839 0.5019351,-0.761942 0.1173527,-2.138272 -1.0565034335,-2.138272 z" /><g
       id="g28515-6-9-64-5-2-6"
       style="fill:#000000"
       transform="matrix(0.11600471,0,0,0.11681546,-53.778842,-0.78405606)"><path
         id="path26172-0-5-0-8-8-1"
         style="fill:#000000;stroke-width:1.03293"
         d="m 521.45898,405 c -7.47885,0 -13.54296,7.93606 -13.54296,17.72656 0,14.18181 18.95899,26.00074 27.08398,47.27344 8.12499,-21.2727 27.08398,-33.09163 27.08398,-47.27344 C 562.08398,412.93606 556.01987,405 548.54102,405 542.81933,405 537.22159,410.39399 535,417.31055 532.77841,410.39399 527.18067,405 521.45898,405 Z" /></g><rect
       style="fill:none;fill-opacity:1;stroke:#000000;stroke-width:0.696292;stroke-dasharray:none;stroke-opacity:1"
       id="rect42578-8-5-8-8-6-4"
       width="11.717609"
       height="11.717609"
       x="23.410496"
       y="23.45994"
       transform="matrix(0.70464013,0.70956485,-0.70464006,0.70956492,0,0)" /><rect
       style="fill:none;fill-opacity:1;stroke:#000000;stroke-width:0.696292;stroke-dasharray:none;stroke-opacity:1"
       id="rect42578-4-63-03-0-0-0-4"
       width="11.717609"
       height="11.717609"
       x="35.128098"
       y="23.45994"
       transform="matrix(0.70464013,0.70956485,-0.70464006,0.70956492,0,0)" /></g></svg>
